<svg xmlns="http://www.w3.org/2000/svg" width="500" height="500" viewBox="0 0 500 500" version="1.1"><path d="M 165.958 162.750 L 165.917 259.500 138.208 283.529 C 122.969 296.744, 110.500 308.048, 110.500 308.648 C 110.500 309.248, 118.350 318.788, 127.944 329.849 C 143.070 347.287, 145.594 349.786, 146.944 348.654 C 147.800 347.936, 152.325 344.024, 157 339.960 L 165.500 332.570 165.759 383.285 L 166.018 434 192.509 434 L 219 434 219 360.050 L 219 286.101 304.250 211.894 C 351.138 171.080, 389.500 137.181, 389.500 136.563 C 389.500 135.105, 355.816 96.141, 354.500 96.076 C 353.950 96.049, 323.350 122.277, 286.500 154.361 L 219.500 212.694 219.244 139.347 L 218.987 66 192.494 66 L 166 66 165.958 162.750 M 253.340 279.026 L 233.180 295.766 289.699 364.455 L 346.218 433.144 348.359 431.209 C 349.536 430.145, 358.600 422.608, 368.500 414.461 C 378.400 406.314, 386.384 399.267, 386.242 398.801 C 385.919 397.738, 275.257 263.260, 274.243 262.698 C 273.834 262.471, 264.428 269.819, 253.340 279.026" stroke="none" fill="#000000" fill-rule="evenodd"/></svg>